<svg xmlns="http://www.w3.org/2000/svg" xmlns:xlink="http://www.w3.org/1999/xlink" width="260.473" height="67.451" viewBox="0 0 260.473 67.451">
  <defs>
    <linearGradient id="linear-gradient" x1="0.5" x2="0.5" y2="1" gradientUnits="objectBoundingBox">
      <stop offset="0" stop-color="#ccc"/>
      <stop offset="0.452" stop-color="#f6f6f6"/>
      <stop offset="1" stop-color="#fff"/>
    </linearGradient>
  </defs>
  <g id="Group_31" data-name="Group 31" transform="translate(-229.333 -902.659)">
    <g id="Group_19" data-name="Group 19" transform="translate(229.333 914.907)">
      <path id="Path_1" data-name="Path 1" d="M69.779,343.089q1.489,0,2.979.042c.992.028,1.986.067,2.977.141s1.985.155,2.973.308a14.737,14.737,0,0,1,1.481.291,5.029,5.029,0,0,1,.737.248,1.783,1.783,0,0,1,.366.208.829.829,0,0,1,.179.176.558.558,0,0,1,.115.321.574.574,0,0,1-.106.329.89.89,0,0,1-.176.187,1.9,1.9,0,0,1-.362.23,5.377,5.377,0,0,1-.731.294,13.9,13.9,0,0,1-1.475.381c-.988.2-1.98.345-2.976.454a57.811,57.811,0,0,1-11.96,0c-1-.106-1.986-.254-2.976-.453a13.821,13.821,0,0,1-1.477-.381,5.183,5.183,0,0,1-.731-.294,1.968,1.968,0,0,1-.363-.232.9.9,0,0,1-.176-.188.583.583,0,0,1-.108-.33.559.559,0,0,1,.115-.323.866.866,0,0,1,.181-.176,1.909,1.909,0,0,1,.368-.208,5.212,5.212,0,0,1,.737-.248,14.245,14.245,0,0,1,1.481-.291c.989-.151,1.982-.235,2.973-.306s1.985-.112,2.977-.141S68.787,343.088,69.779,343.089Zm0,0a55.255,55.255,0,0,0-5.947.309c-.986.108-1.971.253-2.943.45a13.289,13.289,0,0,0-1.435.372,4.7,4.7,0,0,0-.674.272,1.53,1.53,0,0,0-.285.182.432.432,0,0,0-.093.1c-.019.031-.021.048-.019.049a.284.284,0,0,0,.027.043.48.48,0,0,0,.1.088,1.569,1.569,0,0,0,.29.16,4.9,4.9,0,0,0,.68.226c.469.123.954.206,1.439.283.972.148,1.957.23,2.94.3s1.971.111,2.959.141,1.976.043,2.964.042,1.976-.013,2.964-.042,1.974-.067,2.959-.139,1.968-.154,2.94-.3a13.911,13.911,0,0,0,1.439-.283,4.966,4.966,0,0,0,.68-.226,1.569,1.569,0,0,0,.29-.16.526.526,0,0,0,.1-.088.147.147,0,0,0,.027-.045s0-.019-.019-.051a.464.464,0,0,0-.093-.1,1.581,1.581,0,0,0-.285-.182,4.774,4.774,0,0,0-.674-.272,12.95,12.95,0,0,0-1.435-.371c-.972-.2-1.957-.342-2.943-.448A54.883,54.883,0,0,0,69.779,343.089Z" transform="translate(-49.305 -291.809)" fill="#fff" opacity="0.1"/>
      <ellipse id="Ellipse_1" data-name="Ellipse 1" cx="5.082" cy="2.317" rx="5.082" ry="2.317" transform="translate(15.394 48.882)" fill="#2bc0fe"/>
      <g id="Group_17" data-name="Group 17" transform="translate(0 0)">
        <g id="Group_16" data-name="Group 16" transform="translate(0 0)">
          <g id="Group_3" data-name="Group 3" transform="translate(0 0)">
            <g id="Group_2" data-name="Group 2">
              <g id="Group_1" data-name="Group 1">
                <path id="Path_2" data-name="Path 2" d="M0,20.468a20.335,20.335,0,0,0,2.246,9.318A18.608,18.608,0,0,1,5.1,18.621a16.993,16.993,0,0,1,11.47-7.653,10.205,10.205,0,0,1,3.9-.771V0A20.491,20.491,0,0,0,0,20.468Z" fill="url(#linear-gradient)"/>
                <path id="Path_3" data-name="Path 3" d="M155.162,11.184A20.476,20.476,0,0,0,136.946.04l-.006,10.192a10.158,10.158,0,0,1,10.271,10.123A10.494,10.494,0,0,1,140.841,30a16.864,16.864,0,0,0,11.518-7.73A18.651,18.651,0,0,0,155.162,11.184Z" transform="translate(-116.472 -0.034)" fill="url(#linear-gradient)"/>
              </g>
            </g>
          </g>
          <path id="Union_1" data-name="Union 1" d="M30.739,20.322A10.158,10.158,0,0,0,20.468,10.2L20.474.006A20.476,20.476,0,0,1,38.689,11.15a18.65,18.65,0,0,1-2.8,11.089,16.864,16.864,0,0,1-11.518,7.73A10.494,10.494,0,0,0,30.739,20.322ZM0,20.468A20.491,20.491,0,0,1,20.468,0V10.2a10.207,10.207,0,0,0-3.9.771A16.993,16.993,0,0,0,5.1,18.621,18.609,18.609,0,0,0,2.246,29.786,20.336,20.336,0,0,1,0,20.468Z" fill="url(#linear-gradient)"/>
          <path id="Path_6" data-name="Path 6" d="M83.28.23a20.335,20.335,0,0,0-9.318,2.246A18.608,18.608,0,0,1,85.128,5.328,16.993,16.993,0,0,1,92.78,16.8a10.268,10.268,0,0,1-9.352,14.171A10.494,10.494,0,0,1,73.78,24.6a16.864,16.864,0,0,0,7.73,11.518l.1.064c6.3,3.856,15.276,2.122,18.353-4.592,1.641-3.581,3.24-6.736,3.734-10.892h.048A20.493,20.493,0,0,0,83.28.23Z" transform="translate(-62.752 -0.196)" fill="url(#linear-gradient)"/>
          <path id="Path_7" data-name="Path 7" d="M22.8,82.88a10.287,10.287,0,0,1,6.37-9.5A16.993,16.993,0,0,0,17.7,81.033,18.608,18.608,0,0,0,14.847,92.2c3.4,6.614,18.221,23.269,18.221,23.269V93.151A10.283,10.283,0,0,1,22.8,82.88Z" transform="translate(-12.602 -62.412)" fill="url(#linear-gradient)"/>
          <path id="Union_2" data-name="Union 2" d="M18.255,19.772a10.207,10.207,0,0,0,3.9-.771,16.994,16.994,0,0,0,11.469-7.653A18.606,18.606,0,0,0,36.475.182,20.356,20.356,0,0,1,38.723,9.5c0,11.286-20.468,32.587-20.468,32.587ZM.03,18.818Q0,18.249,0,17.683A18.458,18.458,0,0,1,2.882,7.653,16.993,16.993,0,0,1,14.352,0a10.27,10.27,0,0,0,3.9,19.772V42.087S3.426,25.432.03,18.818Z" transform="translate(2.215 10.968)" fill="url(#linear-gradient)"/>
        </g>
      </g>
      <g id="Ellipse_2" data-name="Ellipse 2" transform="translate(10.162 10.17)" fill="#2bc3fe" stroke="#ebebeb" stroke-width="4">
        <circle cx="10.313" cy="10.313" r="10.313" stroke="none"/>
        <circle cx="10.313" cy="10.313" r="8.313" fill="none"/>
      </g>
      <path id="Path_13" data-name="Path 13" d="M105.972,105.587l-.805-.805a.4.4,0,0,0-.55-.015l-3.067,2.759a.44.44,0,0,1-.568,0l-.834-.726a.412.412,0,0,0-.554.019l-.99.99a.379.379,0,0,0,0,.536l2.48,2.48.18.18c.1.1.293.054.433-.1l4.291-4.77A.406.406,0,0,0,105.972,105.587Z" transform="translate(-81.796 -87.201)" fill="#fff"/>
    </g>
    <text id="QvikTask" transform="translate(384.806 956.659)" fill="#fff" font-size="50" font-family="SegoeUI-Bold, Segoe UI" font-weight="700"><tspan x="-104.541" y="0">QvikTask</tspan></text>
  </g>
</svg>
