<svg xmlns="http://www.w3.org/2000/svg" width="123.514" height="24.822" viewBox="0 0 123.514 24.822">
  <g id="Group_8150" data-name="Group 8150" transform="translate(2436.121 -2261.928)">
    <g id="Group_1" data-name="Group 1" transform="translate(-2474 2259.129)">
      <path id="QvikTask" d="M18.2-143.43a9.707,9.707,0,0,1-7.291-2.9,10.511,10.511,0,0,1-2.818-7.6,11.235,11.235,0,0,1,2.861-7.988,9.878,9.878,0,0,1,7.582-3.05,9.43,9.43,0,0,1,7.2,2.919,10.715,10.715,0,0,1,2.76,7.7,11.039,11.039,0,0,1-2.861,7.916q-.1.1-.189.2a2.249,2.249,0,0,1-.189.182l5.272,5.069H23.969l-2.76-2.8a11.683,11.683,0,0,1-3.006.363Zm.2-17.5a4.74,4.74,0,0,0-3.921,1.859,7.692,7.692,0,0,0-1.452,4.9,7.578,7.578,0,0,0,1.452,4.895,4.655,4.655,0,0,0,3.805,1.8,4.708,4.708,0,0,0,3.849-1.743,7.563,7.563,0,0,0,1.423-4.866,8.161,8.161,0,0,0-1.38-5.04,4.474,4.474,0,0,0-3.776-1.8Zm27.262,2.266-5.534,14.873H34.906l-5.272-14.873h4.909l2.585,9.165a13.386,13.386,0,0,1,.508,2.643h.058a15,15,0,0,1,.537-2.556l2.643-9.252Zm4.285-2.353a2.679,2.679,0,0,1-1.9-.691,2.223,2.223,0,0,1-.741-1.692,2.144,2.144,0,0,1,.741-1.685,2.769,2.769,0,0,1,1.9-.654,2.763,2.763,0,0,1,1.91.654A2.153,2.153,0,0,1,52.6-163.4a2.214,2.214,0,0,1-.733,1.714A2.728,2.728,0,0,1,49.953-161.019Zm2.266,17.226h-4.59v-14.873h4.59Zm18.765,0h-5.5l-4.749-7.378h-.058v7.378h-4.59v-22.019h4.59V-151.8h.058l4.43-6.87h5.447l-5.331,6.986Zm16.8-17.008h-5.94v17.008H77.142V-160.8H71.231v-3.82H87.788Zm12.2,17.008H95.646v-2.135h-.058a4.849,4.849,0,0,1-4.43,2.5,4.633,4.633,0,0,1-3.406-1.227,4.4,4.4,0,0,1-1.242-3.275q0-4.328,5.127-5l4.038-.537q0-2.44-2.643-2.44a9.022,9.022,0,0,0-5.054,1.583v-3.457a11.369,11.369,0,0,1,2.622-.871,13.782,13.782,0,0,1,3.028-.378q6.362,0,6.362,6.347Zm-4.314-6.042v-1l-2.7.349q-2.237.29-2.237,2.018a1.668,1.668,0,0,0,.544,1.285,2.092,2.092,0,0,0,1.474.5,2.717,2.717,0,0,0,2.106-.893A3.226,3.226,0,0,0,95.675-149.835Zm6.972,5.65V-147.9a9.771,9.771,0,0,0,2.259,1.016,7.489,7.489,0,0,0,2.128.334,4.563,4.563,0,0,0,1.924-.334,1.078,1.078,0,0,0,.7-1.017.941.941,0,0,0-.319-.726,2.97,2.97,0,0,0-.821-.508,9.308,9.308,0,0,0-1.1-.392q-.6-.174-1.147-.392a11,11,0,0,1-1.561-.719,4.514,4.514,0,0,1-1.132-.893,3.511,3.511,0,0,1-.7-1.176,4.7,4.7,0,0,1-.239-1.583,4.076,4.076,0,0,1,.544-2.15,4.449,4.449,0,0,1,1.452-1.474,6.636,6.636,0,0,1,2.077-.842,10.831,10.831,0,0,1,2.433-.269,13.5,13.5,0,0,1,2,.152,14.965,14.965,0,0,1,2,.443v3.544a7.242,7.242,0,0,0-1.867-.762,7.872,7.872,0,0,0-1.954-.254,4.329,4.329,0,0,0-.85.08,2.8,2.8,0,0,0-.7.232,1.293,1.293,0,0,0-.479.392.9.9,0,0,0-.174.544,1.006,1.006,0,0,0,.261.7,2.271,2.271,0,0,0,.683.5,6.736,6.736,0,0,0,.937.378q.516.167,1.024.341a13.315,13.315,0,0,1,1.656.7,5.3,5.3,0,0,1,1.271.886,3.479,3.479,0,0,1,.813,1.191,4.233,4.233,0,0,1,.283,1.627,4.244,4.244,0,0,1-.574,2.259,4.593,4.593,0,0,1-1.526,1.525,6.916,6.916,0,0,1-2.193.857,12.16,12.16,0,0,1-2.578.269A13.291,13.291,0,0,1,102.646-144.186Zm28.961.392h-5.5l-4.749-7.378H121.3v7.378h-4.59v-22.019h4.59V-151.8h.058l4.43-6.87h5.447l-5.33,6.986Z" transform="translate(29.785 168.611)" fill="#fff"/>
    </g>
  </g>
</svg>
