<svg xmlns="http://www.w3.org/2000/svg" xmlns:xlink="http://www.w3.org/1999/xlink" width="1215.376" height="248.361" viewBox="0 0 1215.376 248.361">
  <defs>
    <linearGradient id="linear-gradient" x1="0.5" x2="0.5" y2="1" gradientUnits="objectBoundingBox">
      <stop offset="0" stop-color="#ccc"/>
      <stop offset="0.452" stop-color="#f6f6f6"/>
      <stop offset="1" stop-color="#fff"/>
    </linearGradient>
    <linearGradient id="linear-gradient-7" x1="0.5" x2="0.5" y2="1" gradientUnits="objectBoundingBox">
      <stop offset="0" stop-color="#0b8fe9"/>
      <stop offset="1" stop-color="#2db6fd"/>
    </linearGradient>
  </defs>
  <g id="Group_1" data-name="Group 1" transform="translate(-353.213 -413.097)">
    <g id="Group_19" data-name="Group 19" transform="translate(353.213 413.097)">
      <path id="Path_1" data-name="Path 1" d="M111.105,343.089q6.7,0,13.4.189c4.463.126,8.936.3,13.394.634s8.931.7,13.376,1.386a66.333,66.333,0,0,1,6.663,1.309,22.646,22.646,0,0,1,3.316,1.116,8.03,8.03,0,0,1,1.647.936,3.729,3.729,0,0,1,.805.792,2.51,2.51,0,0,1,.517,1.445,2.582,2.582,0,0,1-.477,1.48,4.006,4.006,0,0,1-.792.841,8.549,8.549,0,0,1-1.629,1.035,24.207,24.207,0,0,1-3.289,1.323,62.56,62.56,0,0,1-6.636,1.714c-4.445.9-8.909,1.552-13.39,2.043a260.108,260.108,0,0,1-53.811,0c-4.5-.477-8.936-1.143-13.39-2.038a62.219,62.219,0,0,1-6.645-1.714,23.324,23.324,0,0,1-3.289-1.323,8.842,8.842,0,0,1-1.633-1.044,4.042,4.042,0,0,1-.792-.846,2.623,2.623,0,0,1-.486-1.485,2.515,2.515,0,0,1,.517-1.453,3.893,3.893,0,0,1,.814-.792,8.585,8.585,0,0,1,1.656-.936,23.453,23.453,0,0,1,3.316-1.116,64.068,64.068,0,0,1,6.663-1.31c4.45-.679,8.918-1.057,13.376-1.377s8.931-.5,13.394-.634S106.642,343.085,111.105,343.089Zm0,0a248.645,248.645,0,0,0-26.757,1.39c-4.436.486-8.868,1.138-13.241,2.025a59.77,59.77,0,0,0-6.456,1.674,21.141,21.141,0,0,0-3.033,1.224,6.879,6.879,0,0,0-1.282.819,1.95,1.95,0,0,0-.418.45c-.086.14-.095.216-.086.221a1.277,1.277,0,0,0,.121.194,2.163,2.163,0,0,0,.45.4,7.046,7.046,0,0,0,1.3.72,22.037,22.037,0,0,0,3.06,1.017c2.11.553,4.292.927,6.474,1.273,4.373.666,8.805,1.035,13.228,1.35s8.868.5,13.313.634,8.891.193,13.336.189,8.891-.058,13.336-.189,8.882-.3,13.313-.625,8.855-.693,13.228-1.35a62.592,62.592,0,0,0,6.474-1.273,22.344,22.344,0,0,0,3.06-1.017,7.054,7.054,0,0,0,1.3-.72,2.371,2.371,0,0,0,.45-.4.662.662,0,0,0,.122-.2.508.508,0,0,0-.085-.229,2.091,2.091,0,0,0-.419-.45,7.106,7.106,0,0,0-1.282-.819,21.472,21.472,0,0,0-3.033-1.224,58.254,58.254,0,0,0-6.456-1.669c-4.373-.9-8.805-1.539-13.241-2.016a246.955,246.955,0,0,0-26.784-1.394Z" transform="translate(-18.987 -112.366)" fill="#009ef5"/>
      <ellipse id="Ellipse_1" data-name="Ellipse 1" cx="22.865" cy="10.425" rx="22.865" ry="10.425" transform="translate(69.262 219.934)" fill="#26aef9"/>
      <g id="Group_17" data-name="Group 17" transform="translate(0 0)">
        <g id="Group_16" data-name="Group 16">
          <g id="Group_3" data-name="Group 3" transform="translate(0 0)">
            <g id="Group_2" data-name="Group 2">
              <g id="Group_1-2" data-name="Group 1">
                <path id="Path_2" data-name="Path 2" d="M0,92.091a91.493,91.493,0,0,0,10.105,41.924A83.723,83.723,0,0,1,22.946,83.781,76.456,76.456,0,0,1,74.553,49.348,45.915,45.915,0,0,1,92.1,45.879V0A92.2,92.2,0,0,0,0,92.091Z" transform="translate(0)" fill="url(#linear-gradient)"/>
                <path id="Path_3" data-name="Path 3" d="M218.926,50.18A92.127,92.127,0,0,0,136.967.04L136.94,45.9a45.7,45.7,0,0,1,46.212,45.546,47.215,47.215,0,0,1-28.66,43.4,75.876,75.876,0,0,0,51.823-34.779A83.916,83.916,0,0,0,218.926,50.18Z" transform="translate(-44.849 -0.013)" fill="url(#linear-gradient)"/>
              </g>
            </g>
          </g>
          <path id="Union_1" data-name="Union 1" d="M138.3,91.434A45.7,45.7,0,0,0,92.091,45.893L92.118.027a92.127,92.127,0,0,1,81.954,50.14,83.912,83.912,0,0,1-12.6,49.892,75.876,75.876,0,0,1-51.823,34.779,47.215,47.215,0,0,0,28.651-43.4ZM0,92.091A92.2,92.2,0,0,1,92.091,0V45.893a45.924,45.924,0,0,0-17.547,3.469,76.456,76.456,0,0,0-51.6,34.419,83.727,83.727,0,0,0-12.841,50.234A91.5,91.5,0,0,1,0,92.091Z" transform="translate(0 0)" fill="url(#linear-gradient)"/>
          <path id="Path_6" data-name="Path 6" d="M116.52.23A91.493,91.493,0,0,0,74.6,10.335a83.723,83.723,0,0,1,50.239,12.832,76.456,76.456,0,0,1,34.428,51.616,46.2,46.2,0,0,1-42.077,63.759,47.212,47.212,0,0,1-43.405-28.656A75.876,75.876,0,0,0,108.557,161.7l.45.288c28.345,17.349,68.731,9.547,82.575-20.661,7.383-16.112,14.578-30.307,16.8-49.006h.216A92.2,92.2,0,0,0,116.52.23Z" transform="translate(-24.159 -0.077)" fill="url(#linear-gradient)"/>
          <path id="Path_7" data-name="Path 7" d="M50.766,116.123A46.284,46.284,0,0,1,79.427,73.38,76.456,76.456,0,0,0,27.82,107.813a83.722,83.722,0,0,0-12.836,50.243c15.3,29.758,81.981,104.694,81.981,104.694V162.335A46.266,46.266,0,0,1,50.766,116.123Z" transform="translate(-4.882 -24.032)" fill="url(#linear-gradient)"/>
          <path id="Union_2" data-name="Union 2" d="M82.136,88.96a45.925,45.925,0,0,0,17.547-3.469,76.461,76.461,0,0,0,51.6-34.433A83.714,83.714,0,0,0,164.113.819a91.587,91.587,0,0,1,10.114,41.924c0,50.779-92.091,146.618-92.091,146.618Zm-82-4.292Q0,82.107,0,79.561A83.048,83.048,0,0,1,12.968,34.433,76.456,76.456,0,0,1,64.575,0,46.208,46.208,0,0,0,82.122,88.96v100.4S15.416,114.426.136,84.667Z" transform="translate(9.964 49.348)" fill="url(#linear-gradient)"/>
        </g>
      </g>
      <g id="Ellipse_2" data-name="Ellipse 2" transform="translate(45.722 45.758)" stroke="#ebebeb" stroke-width="4" fill="url(#linear-gradient-7)">
        <circle cx="46.401" cy="46.401" r="46.401" stroke="none"/>
        <circle cx="46.401" cy="46.401" r="44.401" fill="none"/>
      </g>
      <path id="Path_13" data-name="Path 13" d="M132.143,108.814l-3.622-3.622a1.8,1.8,0,0,0-2.475-.068l-13.8,12.414a1.98,1.98,0,0,1-2.556,0l-3.752-3.266a1.854,1.854,0,0,0-2.493.086l-4.454,4.454a1.705,1.705,0,0,0,0,2.412l11.158,11.158.81.81c.45.45,1.318.243,1.948-.45l19.306-21.462a1.827,1.827,0,0,0-.072-2.466Z" transform="translate(-23.368 -26.09)" fill="#fff"/>
    </g>
    <path id="QvikTask" d="M84.219,2.734q-33.688,0-54.906-21.875Q8.094-41.234,8.094-76.344q0-37.078,21.547-60.156,21.438-22.969,57.094-22.969,33.578,0,54.25,21.984,20.781,21.875,20.781,57.969,0,36.859-21.547,59.609-.766.766-1.422,1.477a16.9,16.9,0,0,1-1.422,1.367l39.7,38.172H127.641L106.859,0A87.982,87.982,0,0,1,84.219,2.734Zm1.531-131.8q-18.484,0-29.531,14Q45.281-101.172,45.281-78.2q0,23.3,10.938,36.859T84.875-27.781q18.266,0,28.984-13.125,10.719-13.344,10.719-36.641,0-24.281-10.391-37.953Q103.906-129.062,85.75-129.062ZM291.047-112,249.375,0H210L170.3-112h36.969l19.469,69.016a100.792,100.792,0,0,1,3.828,19.906H231a112.968,112.968,0,0,1,4.047-19.25L254.953-112Zm32.266-17.719q-8.75,0-14.328-5.2a16.739,16.739,0,0,1-5.578-12.742,16.144,16.144,0,0,1,5.578-12.687q5.578-4.922,14.328-4.922,8.859,0,14.383,4.922a16.215,16.215,0,0,1,5.523,12.688A16.673,16.673,0,0,1,337.7-134.75Q332.172-129.719,323.313-129.719ZM340.375,0H305.813V-112h34.563ZM481.688,0H440.234L404.469-55.562h-.437V0H369.469V-165.812h34.563V-60.266h.438L437.828-112h41.016L438.7-59.391ZM608.234-128.078H563.5V0H528.063V-128.078H483.547v-28.766H608.234ZM700.109,0h-32.7V-16.078h-.437Q655.7,2.734,633.609,2.734q-16.3,0-25.648-9.242t-9.352-24.664q0-32.594,38.609-37.625l30.406-4.047q0-18.375-19.906-18.375-20.016,0-38.062,11.922v-26.031q7.219-3.719,19.742-6.562a103.777,103.777,0,0,1,22.8-2.844q47.906,0,47.906,47.8ZM667.625-45.5v-7.547l-20.344,2.625q-16.844,2.187-16.844,15.2a12.563,12.563,0,0,0,4.1,9.68q4.1,3.773,11.1,3.773A20.462,20.462,0,0,0,661.5-28.492Q667.625-35.219,667.625-45.5Zm52.5,42.547v-28A73.586,73.586,0,0,0,737.133-23.3a56.392,56.392,0,0,0,16.023,2.516q9.188,0,14.492-2.516t5.3-7.656a7.084,7.084,0,0,0-2.406-5.469,22.368,22.368,0,0,0-6.18-3.828,70.129,70.129,0,0,0-8.258-2.953q-4.484-1.312-8.641-2.953a82.787,82.787,0,0,1-11.758-5.414A33.985,33.985,0,0,1,727.18-58.3a26.439,26.439,0,0,1-5.25-8.859,35.354,35.354,0,0,1-1.8-11.922,30.691,30.691,0,0,1,4.1-16.187,33.5,33.5,0,0,1,10.938-11.1,49.975,49.975,0,0,1,15.641-6.344,81.551,81.551,0,0,1,18.32-2.023,101.653,101.653,0,0,1,15.094,1.148,112.654,112.654,0,0,1,15.094,3.336v26.688A54.539,54.539,0,0,0,785.258-89.3a59.287,59.287,0,0,0-14.711-1.914,32.592,32.592,0,0,0-6.4.6,21.074,21.074,0,0,0-5.3,1.75,9.741,9.741,0,0,0-3.609,2.953,6.8,6.8,0,0,0-1.312,4.1,7.577,7.577,0,0,0,1.969,5.25,17.1,17.1,0,0,0,5.141,3.773,50.745,50.745,0,0,0,7.055,2.844q3.883,1.258,7.711,2.57a100.253,100.253,0,0,1,12.469,5.25,39.867,39.867,0,0,1,9.57,6.672,26.2,26.2,0,0,1,6.125,8.969,31.877,31.877,0,0,1,2.133,12.25q0,9.953-4.32,17.008A34.589,34.589,0,0,1,790.289-5.742,52.082,52.082,0,0,1,773.773.711a91.559,91.559,0,0,1-19.414,2.023A100.083,100.083,0,0,1,720.125-2.953ZM938.219,0H896.766L861-55.562h-.437V0H826V-165.812h34.563V-60.266H861L894.359-112h41.016L895.234-59.391Z" transform="translate(630.37 599.99)" fill="#fff"/>
  </g>
</svg>
