<svg xmlns="http://www.w3.org/2000/svg" width="338.531" height="300.4" viewBox="0 0 338.531 300.4">
  <g id="alert" transform="translate(0 -19.066)">
    <g id="Group_2" data-name="Group 2">
      <g id="Group_1" data-name="Group 1">
        <path id="Path_1" data-name="Path 1" d="M333.413,275.866l-139.2-239.6c-6.4-10.8-15.6-17.2-25.2-17.2-10,0-19.2,6.4-25.2,17.2l-138.4,239.6c-6.4,10.8-7.2,22-2,30.4,4.8,8.4,14.8,13.2,27.6,13.2h276.8c12.4,0,22.4-4.8,27.6-13.2C340.213,297.866,339.413,286.666,333.413,275.866Zm-13.2,22c-2,3.2-6.4,4.8-12.8,4.8H30.613c-6.4,0-11.2-2-12.8-4.8-2-3.2-1.2-8,2-13.6l138.4-239.6c3.2-5.6,7.2-8.8,10.8-8.8s7.6,3.2,10.8,8.8l138.4,239.6C321.413,289.866,322.213,294.666,320.213,297.866Z"/>
      </g>
    </g>
    <g id="Group_4" data-name="Group 4">
      <g id="Group_3" data-name="Group 3">
        <path id="Path_2" data-name="Path 2" d="M169.013,97.866a8.2,8.2,0,0,0-8.4,8.4v111.2a8.4,8.4,0,0,0,16.8,0v-111.2A8.2,8.2,0,0,0,169.013,97.866Z"/>
      </g>
    </g>
    <g id="Group_6" data-name="Group 6">
      <g id="Group_5" data-name="Group 5">
        <circle id="Ellipse_1" data-name="Ellipse 1" cx="14.8" cy="14.8" r="14.8" transform="translate(154.213 244.666)"/>
      </g>
    </g>
  </g>
</svg>
