<svg xmlns="http://www.w3.org/2000/svg" width="15.002" height="16.001" viewBox="0 0 15.002 16.001">
  <path id="Forma_1" data-name="Forma 1" d="M1.375,0A1.413,1.413,0,0,0,0,1.443V12.786a1.414,1.414,0,0,0,1.335,1.433V12.284A1.549,1.549,0,0,1,2.854,10.7h.959a1.557,1.557,0,0,1,1.528,1.58v1.942h4.32V12.284a1.557,1.557,0,0,1,1.528-1.58h.958a1.549,1.549,0,0,1,1.519,1.58v1.936A1.414,1.414,0,0,0,15,12.786V1.443A1.415,1.415,0,0,0,13.627,0Zm.379,8.008V2.149a.608.608,0,0,1,.595-.62H12.627a.608.608,0,0,1,.595.62h0V8.008a.608.608,0,0,1-.594.62H2.349A.608.608,0,0,1,1.754,8.008ZM9.93,2.376a.356.356,0,0,0-.348.363V4.006a.356.356,0,0,0,.348.363h1.215a.356.356,0,0,0,.348-.363V2.739a.356.356,0,0,0-.348-.363Zm-3.037,0a.356.356,0,0,0-.348.363V4.006a.356.356,0,0,0,.348.363H8.109a.356.356,0,0,0,.348-.363V2.739a.356.356,0,0,0-.348-.363Zm-3.037,0a.356.356,0,0,0-.348.363V4.006a.356.356,0,0,0,.348.363H5.071a.356.356,0,0,0,.348-.363V2.739a.356.356,0,0,0-.348-.363ZM9.93,5.543a.356.356,0,0,0-.348.363V7.173a.356.356,0,0,0,.348.363h1.215a.356.356,0,0,0,.348-.363V5.906a.356.356,0,0,0-.348-.363Zm-3.037,0a.356.356,0,0,0-.348.363V7.173a.356.356,0,0,0,.348.363H8.109a.356.356,0,0,0,.348-.363V5.906a.356.356,0,0,0-.348-.363Zm-3.037,0a.356.356,0,0,0-.348.363V7.173a.356.356,0,0,0,.348.363H5.071a.356.356,0,0,0,.348-.363V5.906a.356.356,0,0,0-.348-.363Zm7.321,6.2a.532.532,0,0,0-.521.543v3.173a.532.532,0,0,0,.521.543h.948a.532.532,0,0,0,.521-.543V12.284a.532.532,0,0,0-.521-.543Zm-8.326,0a.532.532,0,0,0-.521.543v3.173A.532.532,0,0,0,2.851,16H3.8a.532.532,0,0,0,.521-.543V12.284a.532.532,0,0,0-.521-.543Z"/>
</svg>
