<svg id="maps-and-flags" xmlns="http://www.w3.org/2000/svg" width="94.667" height="94.667" viewBox="0 0 94.667 94.667">
  <path id="Path_3531" data-name="Path 3531" d="M47.333,94.667A47.333,47.333,0,1,1,94.667,47.333,47.388,47.388,0,0,1,47.333,94.667Z" fill="#c3e678"/>
  <path id="Path_3532" data-name="Path 3532" d="M69.423,90.206A47.255,47.255,0,0,1,32.087,13.884,47.3,47.3,0,1,0,84.669,87.639,47.039,47.039,0,0,1,69.423,90.206Z" transform="translate(0 -11.317)" fill="#a5d76e"/>
  <path id="Path_3533" data-name="Path 3533" d="M102.3,201.332a3.253,3.253,0,0,1-2.308-.956L80.4,180.79a3.264,3.264,0,0,1,4.616-4.616L102.3,193.451l33.6-33.6a3.264,3.264,0,1,1,4.616,4.616l-35.908,35.908A3.253,3.253,0,0,1,102.3,201.332Z" transform="translate(-64.758 -129.516)" fill="#fff"/>
</svg>
