<svg xmlns="http://www.w3.org/2000/svg" width="497.25" height="612" viewBox="0 0 497.25 612">
  <g id="timer" transform="translate(-57.375)">
    <g id="Group_4" data-name="Group 4">
      <path id="Path_3" data-name="Path 3" d="M432.272,68.692l-20.554,35.567,71.221,41.109L503.494,109.8a20.6,20.6,0,0,0-7.545-28.1L460.382,61.141A20.545,20.545,0,0,0,432.272,68.692Z"/>
      <path id="Path_4" data-name="Path 4" d="M306,92.56a269.549,269.549,0,0,1,38.25,3.065V62.357l26.3-.2V19.125A19.114,19.114,0,0,0,351.422,0H260.779a19.114,19.114,0,0,0-19.125,19.125V62.156l26.1.2V95.625A269.549,269.549,0,0,1,306,92.56Z"/>
      <path id="Path_5" data-name="Path 5" d="M306,114.75c-137.312,0-248.625,111.312-248.625,248.625S168.688,612,306,612,554.625,500.688,554.625,363.375,443.312,114.75,306,114.75ZM422.185,480.229l-144.873-100.3V238.34H319.12V358.029l126.86,87.827Z"/>
    </g>
  </g>
</svg>
