<svg id="delete" xmlns="http://www.w3.org/2000/svg" width="310.398" height="407" viewBox="0 0 310.398 407">
  <path id="Path_3559" data-name="Path 3559" d="M89.2,37c0-12.133,9.469-21,21.6-21h88.8c12.129,0,21.6,8.867,21.6,21V60h16V37c0-20.953-16.645-37-37.6-37H110.8C89.848,0,73.2,16.047,73.2,37V60h16Zm0,0"/>
  <path id="Path_3560" data-name="Path 3560" d="M60.6,407H249.8c18.242,0,32.4-16.047,32.4-36V124H28.2V371C28.2,390.953,42.355,407,60.6,407ZM206.2,162.2a8,8,0,0,1,16,0v189a8,8,0,0,1-16,0Zm-59,0a8,8,0,0,1,16,0v189a8,8,0,0,1-16,0Zm-59,0a8,8,0,0,1,16,0v189a8,8,0,0,1-16,0Zm0,0"/>
  <path id="Path_3561" data-name="Path 3561" d="M20,108H290.4a20,20,0,0,0,0-40H20a20,20,0,0,0,0,40Zm0,0"/>
</svg>
