<svg id="event" xmlns="http://www.w3.org/2000/svg" width="512" height="512" viewBox="0 0 512 512">
  <g id="Group_8125" data-name="Group 8125">
    <path id="Path_3559" data-name="Path 3559" d="M469.333,304.232V85.333a42.716,42.716,0,0,0-42.667-42.667H373.333a10.661,10.661,0,0,0-10.667,10.667v53.333A21.333,21.333,0,1,1,334.25,86.688a10.675,10.675,0,0,0,7.083-10.052V10.667a10.667,10.667,0,1,0-21.333,0v32H160a10.661,10.661,0,0,0-10.667,10.667v53.333a21.333,21.333,0,1,1-28.416-19.979A10.675,10.675,0,0,0,128,76.636V10.667a10.667,10.667,0,1,0-21.334,0v32h-64A42.715,42.715,0,0,0,0,85.333V426.666a42.716,42.716,0,0,0,42.667,42.667H304.23a117.283,117.283,0,1,0,165.1-165.1Zm-192,90.435a116.818,116.818,0,0,0,4.549,32H42.667v-256h384V281.883A117.022,117.022,0,0,0,277.333,394.667Zm156.875,39.541a10.664,10.664,0,0,1-15.084,0l-32-32A10.659,10.659,0,0,1,384,394.666v-64a10.667,10.667,0,0,1,21.334,0v59.583l28.875,28.875A10.663,10.663,0,0,1,434.208,434.208Z"/>
  </g>
</svg>
