<svg xmlns="http://www.w3.org/2000/svg" xmlns:xlink="http://www.w3.org/1999/xlink" width="94" height="96.993" viewBox="0 0 94 96.993">
  <defs>
    <clipPath id="clip-path">
      <rect width="94" height="96.993" fill="none"/>
    </clipPath>
  </defs>
  <g id="Repeat_Grid_1" data-name="Repeat Grid 1" clip-path="url(#clip-path)" style="isolation: isolate">
    <g transform="translate(-786 -507)">
      <path id="Forma_1" data-name="Forma 1" d="M0,78.907c0-2.263.7-10.066,9.693-15.431,7.616-4.7,18.041-5.412,23.642-5.8l.39-.027-.22-.284c-1.746-2.24-3.552-4.557-3.552-8.313a10.536,10.536,0,0,1,1.061-4.476l.188-.458c-1.274.119-2.719.254-4.023.254C13.616,44.372,6.3,34.137,6.3,24.506a22.862,22.862,0,0,1,8.04-16.942C20.736,2.262,27.849,0,38.124,0H61.183a.5.5,0,0,1,.265.924l-6.59,4.157a.489.489,0,0,1-.266.077H46.94c2.9,2.4,8.924,7.4,8.924,17.077,0,9.623-5.629,14.072-10.6,18l-.163.166c-1.562,1.559-3.331,3.326-3.331,6,0,2.724,1.769,4.194,3.191,5.375l4.6,3.588c5.451,4.6,10.587,8.942,10.584,17.729,0,11.878-11.37,23.9-33.1,23.9C8.363,97,0,87.911,0,78.907ZM21.884,63.234c-7.169,2.605-10.809,6.989-10.809,13.019,0,9.238,8.9,15.443,22.145,15.443,11.411,0,18.5-5.234,18.5-13.664,0-6.616-4.456-10.091-13.724-16.707a20.159,20.159,0,0,0-2.889-.127,50.669,50.669,0,0,0-13.223,2.036ZM20.132,8.954c-1.862,2.313-2.767,5.377-2.767,9.367,0,7.849,4.613,22.507,15.729,22.507A12.875,12.875,0,0,0,41.65,37.29c3.144-3.171,3.144-7.735,3.144-9.236,0-9.512-5.644-23.274-15.851-23.274a11.64,11.64,0,0,0-8.811,4.174Zm55.492,55.39a.5.5,0,0,1-.5-.5V51.619H63.037a.5.5,0,0,1-.5-.5V45.8a.5.5,0,0,1,.5-.5H75.126V33.158a.5.5,0,0,1,.5-.5h5.228a.5.5,0,0,1,.5.5V45.3H93.5a.5.5,0,0,1,.5.5v5.313a.5.5,0,0,1-.5.5H81.351v12.23a.5.5,0,0,1-.5.5Z" transform="translate(786 507)"/>
    </g>
  </g>
</svg>
