<svg xmlns="http://www.w3.org/2000/svg" width="97.394" height="97.395" viewBox="0 0 97.394 97.395">
  <g id="instagram" transform="translate(282 82)">
    <path id="Path_899" data-name="Path 899" d="M12.5,0H84.894a12.2,12.2,0,0,1,12.5,12.5V84.895a12.2,12.2,0,0,1-12.5,12.5H12.5A12.2,12.2,0,0,1,0,84.895V12.5A12.2,12.2,0,0,1,12.5,0ZM70.948,10.821a4.4,4.4,0,0,0-4.383,4.385V25.7a4.4,4.4,0,0,0,4.383,4.385H81.956A4.4,4.4,0,0,0,86.341,25.7V15.206a4.4,4.4,0,0,0-4.385-4.385ZM86.387,41.188H77.815a28.486,28.486,0,0,1,1.25,8.355c0,16.2-13.556,29.332-30.275,29.332S18.518,65.743,18.518,49.543a28.438,28.438,0,0,1,1.25-8.355H10.823V82.329A3.884,3.884,0,0,0,14.7,86.2H82.517a3.883,3.883,0,0,0,3.872-3.872V41.188Zm-37.6-11.655c-10.8,0-19.56,8.485-19.56,18.953s8.758,18.953,19.56,18.953,19.562-8.485,19.562-18.953S59.593,29.533,48.789,29.533Z" transform="translate(-282 -82)"/>
  </g>
</svg>
