<svg xmlns="http://www.w3.org/2000/svg" width="48.02" height="96.044" viewBox="0 0 48.02 96.044">
  <path id="Op_component_1" data-name="Op component 1" d="M116.471,317.189l-17.687-8.844a4.923,4.923,0,0,1-2.745-4.426,8,8,0,1,1,16.006,0h16.006a24.011,24.011,0,0,0-16.006-22.538V271.9H96.039v9.476a24.011,24.011,0,0,0-16.007,22.538,20.867,20.867,0,0,0,11.581,18.745l17.687,8.844a4.923,4.923,0,0,1,2.745,4.426,8,8,0,1,1-16.006,0H80.033a24.011,24.011,0,0,0,16.007,22.538v9.476h16.006v-9.476a24.011,24.011,0,0,0,16.006-22.538A20.867,20.867,0,0,0,116.471,317.189Z" transform="translate(-80.033 -271.904)"/>
</svg>
