<svg xmlns="http://www.w3.org/2000/svg" width="12" height="14.001" viewBox="0 0 12 14.001">
  <path id="Forma_1" data-name="Forma 1" d="M850.148,402.653h-.3v-1.277a4.6,4.6,0,0,0-4.7-4.376c-.071,0-.214,0-.285,0a4.6,4.6,0,0,0-4.7,4.376v1.277h-.3a.917.917,0,0,0-.851.97v6.4a.921.921,0,0,0,.851.973h10.3a.921.921,0,0,0,.851-.973v-6.4A.917.917,0,0,0,850.148,402.653Zm-4.184,4.165v1.935a.439.439,0,0,1-.454.409h-1.021a.439.439,0,0,1-.454-.409v-1.935a1.094,1.094,0,0,1-.379-.828,1.214,1.214,0,0,1,1.2-1.165c.071,0,.214,0,.285,0a1.214,1.214,0,0,1,1.2,1.165A1.1,1.1,0,0,1,845.964,406.818Zm1.875-4.165H842.16v-1.277a2.854,2.854,0,0,1,5.679,0Z" transform="translate(-839 -396.999)" fill="#6d6d6d"/>
</svg>
