<svg xmlns="http://www.w3.org/2000/svg" width="447.054" height="347.004" viewBox="0 0 447.054 347.004">
  <g id="no-job-icon2" transform="translate(0 -11.002)">
    <g id="Group_1" data-name="Group 1" transform="translate(0 11.002)">
      <path id="Path_3" data-name="Path 3" d="M244.033,100.459c-20.755,9.884-37.677,39.891-57.473,20.091-12.03-13.058-26.3-33.831-42.7-57.327-17.731-25.26-40.337-46.979-66.934-22.164C47.232,68.989,26.837,144.779,25.068,183.783l280.57.1C299.218,160.96,274.281,86.056,244.033,100.459Z" transform="translate(88.904 56.786)"/>
      <circle id="Ellipse_1" data-name="Ellipse 1" cx="34.499" cy="34.499" r="34.499" transform="translate(297.128 44.238)"/>
      <path id="Path_4" data-name="Path 4" d="M436.793,11H71.73A10.259,10.259,0,0,0,61.473,21.254V73.112H10.257A10.262,10.262,0,0,0,0,83.364V347.753a10.256,10.256,0,0,0,10.257,10.252H375.319a10.262,10.262,0,0,0,10.257-10.252V295.9H436.8a10.262,10.262,0,0,0,10.257-10.252V21.254A10.271,10.271,0,0,0,436.793,11ZM358.047,330.486H27.529V100.646H61.473v159.8c-5.151,19.9-8.325,39.023-8.97,53.249l280.575.091c-1.232-4.383-3.151-10.684-5.647-17.881h30.616v34.581Zm61.473-62.115H89V38.536H419.521V268.371Z" transform="translate(0 -11.002)"/>
    </g>
  </g>
</svg>
