<svg xmlns="http://www.w3.org/2000/svg" width="325" height="338" viewBox="0 0 325 338">
  <g id="picture" transform="translate(-1)">
    <path id="Path_1" data-name="Path 1" d="M44.63,85.4a36.2,36.2,0,1,0-36.2-36.2A36.236,36.236,0,0,0,44.63,85.4Zm0-59.4a23.2,23.2,0,1,1-23.2,23.205A23.229,23.229,0,0,1,44.63,26Z" transform="translate(40.87 71.5)"/>
    <path id="Path_2" data-name="Path 2" d="M1,0V338H326V0ZM14,13H313V186.725L245.894,125.21a6.672,6.672,0,0,0-4.68-1.7,6.512,6.512,0,0,0-4.511,2.113l-63.661,69.726-30.829-30.829a6.506,6.506,0,0,0-8.892-.286L24.543,260H14ZM313,325H14V273H313ZM44.219,260l93.106-81.971,66.963,66.956a6.5,6.5,0,1,0,9.191-9.191l-31.245-31.245L241.91,139.2,313,204.36V260Z"/>
  </g>
</svg>
