<svg xmlns="http://www.w3.org/2000/svg" width="46" height="54" viewBox="0 0 46 54">
  <path id="Forma_1" data-name="Forma 1" d="M41.014,42.889l-9.553-4.776A2.63,2.63,0,0,1,30,35.748V32.367c.229-.28.47-.6.719-.951a22.886,22.886,0,0,0,2.954-5.8A3.968,3.968,0,0,0,36,22V18a3.988,3.988,0,0,0-1-2.625V10.056a8.965,8.965,0,0,0-2.092-6.525C30.854,1.188,27.521,0,23,0s-7.854,1.188-9.908,3.53A8.967,8.967,0,0,0,11,10.056v5.319A3.988,3.988,0,0,0,10,18v4a3.976,3.976,0,0,0,1.5,3.109A20.988,20.988,0,0,0,15,32.346v3.309a2.642,2.642,0,0,1-1.377,2.32L4.7,42.841A9.018,9.018,0,0,0,0,50.762V54H46V50.957A8.973,8.973,0,0,0,41.014,42.889Z"/>
</svg>
