<svg xmlns="http://www.w3.org/2000/svg" width="283.299" height="209.714" viewBox="0 0 283.299 209.714">
  <g id="Group_1" data-name="Group 1" transform="translate(-714 -296)">
    <path id="XMLID_4_" d="M270.421,42.857H12.877A12.877,12.877,0,0,0,0,55.734v183.96a12.877,12.877,0,0,0,12.877,12.877H270.421A12.877,12.877,0,0,0,283.3,239.694V55.734A12.877,12.877,0,0,0,270.421,42.857ZM194.763,188.216A61.069,61.069,0,0,1,153.544,204.8h0l-.283,0-25.483,0c-31.581,0-57.274-25.4-57.274-56.626,0-32.8,24.717-57.541,57.5-57.541h25.28a61.639,61.639,0,0,1,41.377,15.963,55.87,55.87,0,0,1,18.143,41.58C212.8,163.1,206.393,177.32,194.763,188.216Z" transform="translate(714 253.143)" fill="#0069aa"/>
    <path id="XMLID_7_" d="M141.761,111.681a45.677,45.677,0,1,0,45.654,45.676A45.726,45.726,0,0,0,141.761,111.681ZM130.613,186.4a31.125,31.125,0,0,1,0-58.116Zm22.282,0V128.287a31.114,31.114,0,0,1,0,58.116Z" transform="translate(700.402 243.403)" fill="#0069aa"/>
  </g>
</svg>
