<svg xmlns="http://www.w3.org/2000/svg" width="306.292" height="211.233" viewBox="0 0 306.292 211.233">
  <g id="maestro" transform="translate(0 -79.451)">
    <path id="Path_1" data-name="Path 1" d="M306.292,272.577a18.106,18.106,0,0,1-18.105,18.107H18.105A18.107,18.107,0,0,1,0,272.577V97.557A18.105,18.105,0,0,1,18.105,79.451H288.186a18.105,18.105,0,0,1,18.105,18.106v175.02Z" fill="#e7e8e3"/>
    <path id="Path_2" data-name="Path 2" d="M12.872,272.577V97.557A18.106,18.106,0,0,1,30.979,79.451H18.1A18.106,18.106,0,0,0,0,97.557v175.02a18.106,18.106,0,0,0,18.105,18.107H30.979A18.108,18.108,0,0,1,12.872,272.577Z" fill="#202121" opacity="0.15"/>
    <path id="Path_3" data-name="Path 3" d="M182.043,185.284a50.381,50.381,0,0,1,18.713-39.232,50.484,50.484,0,1,0,0,78.466A50.391,50.391,0,0,1,182.043,185.284Z" transform="translate(-47.61 -22.237)" fill="#ea001b"/>
    <path id="Path_4" data-name="Path 4" d="M287.771,134.8A50.274,50.274,0,0,0,256,146.05a50.482,50.482,0,0,1,0,78.465,50.485,50.485,0,1,0,31.771-89.72Z" transform="translate(-102.854 -22.236)" fill="#0099df"/>
    <path id="Path_5" data-name="Path 5" d="M262.146,192.842a50.38,50.38,0,0,0-18.714-39.232,50.483,50.483,0,0,0,0,78.465A50.388,50.388,0,0,0,262.146,192.842Z" transform="translate(-90.286 -29.795)" fill="#6c6bbd"/>
    <g id="Group_1" data-name="Group 1" transform="translate(41.004 225.832)">
      <path id="Path_6" data-name="Path 6" d="M102.979,340.626a12.11,12.11,0,0,0-9.8,5.407,12.1,12.1,0,0,0-9.8-5.407,11.107,11.107,0,0,0-6.932,2.873l-1.027-1.9a.333.333,0,0,0-.293-.175H68.876a.334.334,0,0,0-.333.333v28.717a.334.334,0,0,0,.333.333h7.735a.333.333,0,0,0,.333-.333V353.993c.861-3.282,2.951-5.24,5.6-5.24,3.284,0,5.855,3.278,5.855,7.463v14.259a.334.334,0,0,0,.333.333h7.221a.333.333,0,0,0,.333-.333V355.761c.121-3.37,2.37-7.008,5.792-7.008,3.284,0,5.855,3.278,5.855,7.463v14.259a.334.334,0,0,0,.333.333h7.221a.333.333,0,0,0,.333-.333V356.216C115.817,347.62,110.059,340.626,102.979,340.626Z" transform="translate(-68.543 -330.765)" fill="#34495e"/>
      <path id="Path_7" data-name="Path 7" d="M185.248,341.382H179.06a.333.333,0,0,0-.324.257l-.52,2.2a14.779,14.779,0,0,0-9.342-3.326,15.531,15.531,0,0,0,0,31.049,14.784,14.784,0,0,0,9.208-3.218v2.086a.334.334,0,0,0,.333.333h6.833a.333.333,0,0,0,.333-.333V341.715A.334.334,0,0,0,185.248,341.382ZM169.906,363.5A6.741,6.741,0,0,1,165,361.35a8.031,8.031,0,0,1-2.044-5.31,7.885,7.885,0,0,1,2.034-5.3,6.748,6.748,0,0,1,4.919-2.164,6.551,6.551,0,0,1,4.853,2.164,7.539,7.539,0,0,1,2.033,5.3,7.673,7.673,0,0,1-2.038,5.305A6.551,6.551,0,0,1,169.906,363.5Z" transform="translate(-102.789 -330.721)" fill="#34495e"/>
      <path id="Path_8" data-name="Path 8" d="M229,340.292a15.6,15.6,0,0,0,0,31.183,14.619,14.619,0,0,0,11.411-5.454.332.332,0,0,0-.069-.483l-6.059-4.2a.334.334,0,0,0-.43.042,6.406,6.406,0,0,1-4.531,2.031,6.182,6.182,0,0,1-4.714-2.221,7.844,7.844,0,0,1-1.376-2.245H243.5a.333.333,0,0,0,.326-.265,13.268,13.268,0,0,0,.264-2.8A15.365,15.365,0,0,0,229,340.292Zm-5.915,12.926a9.309,9.309,0,0,1,1.518-2.706,6.328,6.328,0,0,1,4.719-2.158,6.222,6.222,0,0,1,4.652,2.155,7.579,7.579,0,0,1,1.541,2.709Z" transform="translate(-126.946 -330.631)" fill="#34495e"/>
      <path id="Path_9" data-name="Path 9" d="M283.439,353.059c-.633-.223-1.259-.417-1.853-.6-2.6-.808-4.066-1.332-3.857-2.707a2.186,2.186,0,0,1,2.429-2.058c1.684,0,4,1.024,6.518,2.884a.341.341,0,0,0,.261.059.329.329,0,0,0,.22-.153l3.739-6.062a.334.334,0,0,0-.107-.458c-3.745-2.337-6.387-3.449-11.265-3.449-5.812,0-10.2,3.9-10.2,9.061,0,5.844,4.068,7.611,9.386,9.312,2.314.747,3.83,1.371,3.83,3.147,0,1.343-1.007,2.145-2.694,2.145a9.824,9.824,0,0,1-6.968-3.759.337.337,0,0,0-.244-.118.394.394,0,0,0-.251.1l-5.156,5.4a.333.333,0,0,0,0,.461,18.427,18.427,0,0,0,13.455,5.3c5.638,0,10.583-4.359,10.583-9.329C291.268,357.921,288.409,354.575,283.439,353.059Z" transform="translate(-148.333 -330.72)" fill="#34495e"/>
      <path id="Path_10" data-name="Path 10" d="M333.483,334.8H327.37V324.475a.333.333,0,0,0-.333-.333H318.85a.334.334,0,0,0-.333.333V334.8h-5.47a.334.334,0,0,0-.333.333v7.8a.334.334,0,0,0,.333.333h5.47v20.589a.334.334,0,0,0,.333.333h8.187a.333.333,0,0,0,.333-.333V343.266h6.114a.333.333,0,0,0,.333-.333v-7.8A.333.333,0,0,0,333.483,334.8Z" transform="translate(-166.644 -324.142)" fill="#34495e"/>
      <path id="Path_11" data-name="Path 11" d="M377.256,341.556a14.413,14.413,0,0,0-4.819-.818c-3.952,0-7.3,1.324-9.3,3.654l-.961-2.7a.331.331,0,0,0-.313-.221H355.61a.334.334,0,0,0-.333.333v28.717a.334.334,0,0,0,.333.333h8.058a.333.333,0,0,0,.333-.333l-.005-15.8a7,7,0,0,1,6.807-5.833,7.35,7.35,0,0,1,3.044.679.333.333,0,0,0,.444-.173l3.159-7.4a.332.332,0,0,0-.194-.443Z" transform="translate(-183.745 -330.81)" fill="#34495e"/>
      <path id="Path_12" data-name="Path 12" d="M409.639,340.516a15.526,15.526,0,1,0,15.74,15.525A15.619,15.619,0,0,0,409.639,340.516Zm.064,23.053a6.368,6.368,0,0,1-4.788-2.164,7.446,7.446,0,0,1-2.1-5.365,7.365,7.365,0,0,1,2.115-5.315,6.219,6.219,0,0,1,4.773-2.214,6.5,6.5,0,0,1,4.913,2.225,7.668,7.668,0,0,1,1.974,5.237,8.174,8.174,0,0,1-1.969,5.432A6.662,6.662,0,0,1,409.7,363.569Z" transform="translate(-199.288 -330.721)" fill="#34495e"/>
    </g>
  </g>
</svg>
