<svg xmlns="http://www.w3.org/2000/svg" width="257.041" height="177.267" viewBox="0 0 257.041 177.267">
  <g id="visa" transform="translate(0 -79.451)">
    <path id="Path_21" data-name="Path 21" d="M257.041,241.522a15.2,15.2,0,0,1-15.194,15.2H15.194A15.194,15.194,0,0,1,0,241.522V94.646A15.194,15.194,0,0,1,15.194,79.451H241.847a15.194,15.194,0,0,1,15.194,15.195V241.522Z" transform="translate(0 0)" fill="#fff"/>
    <path id="Path_22" data-name="Path 22" d="M72.24,224.022,66.2,195.07c-1.032-3.993-4.034-5.18-7.785-5.338H30.748l-.246,1.323C52.054,196.28,66.314,208.884,72.24,224.022Z" transform="translate(-15.189 -54.916)" fill="#f79f1a"/>
    <g id="Group_3" data-name="Group 3" transform="translate(0 79.451)">
      <path id="Path_23" data-name="Path 23" d="M212.544,190.892H194.665L183.5,256.421h17.849Z" transform="translate(-91.376 -134.945)" fill="#059bbf"/>
      <path id="Path_24" data-name="Path 24" d="M100.732,256.4l28.119-65.418H109.929l-17.492,44.7-1.867-6.748c-3.429-8.118-13.229-19.8-24.733-27.159l15.99,54.653Z" transform="translate(-32.784 -134.989)" fill="#059bbf"/>
      <path id="Path_25" data-name="Path 25" d="M292.35,233.888c.066-7.44-4.711-13.114-15-17.8-6.256-3.027-10.069-5.046-10.023-8.118,0-2.714,3.229-5.629,10.225-5.629a32.974,32.974,0,0,1,13.366,2.512l1.616.74,2.423-14.2a46.307,46.307,0,0,0-16.012-2.737c-17.65,0-30.074,8.881-30.186,21.62-.112,9.42,8.882,14.667,15.654,17.807,6.952,3.2,9.284,5.248,9.239,8.118-.045,4.389-5.54,6.391-10.675,6.391a37.475,37.475,0,0,1-16.823-3.435l-2.284-1.049-2.509,14.684c4.168,1.822,11.882,3.414,19.89,3.481C280.015,256.274,292.215,247.506,292.35,233.888Z" transform="translate(-120.187 -133.833)" fill="#059bbf"/>
      <path id="Path_26" data-name="Path 26" d="M362.9,246.666c2.041,0,20.273.023,22.876.023.538,2.282,2.175,9.822,2.175,9.822h16.573l-14.465-65.484H376.267c-4.284,0-7.467,1.166-9.352,5.426l-26.53,60.058h18.772S362.2,248.439,362.9,246.666Zm12.244-31.734c-.088.179,1.481-3.79,2.378-6.257l1.21,5.651s3.41,15.654,4.127,18.929H368.036C369.516,229.488,375.144,214.933,375.144,214.933Z" transform="translate(-169.5 -135.012)" fill="#059bbf"/>
      <path id="Path_27" data-name="Path 27" d="M241.847,79.451H15.194A15.194,15.194,0,0,0,0,94.646v15.77H257.041V94.646A15.194,15.194,0,0,0,241.847,79.451Z" transform="translate(0 -79.451)" fill="#059bbf"/>
    </g>
    <path id="Path_28" data-name="Path 28" d="M241.847,401.835H15.194A15.194,15.194,0,0,1,0,386.641v-15.77H257.041v15.77A15.194,15.194,0,0,1,241.847,401.835Z" transform="translate(0 -145.117)" fill="#f79f1a"/>
    <path id="Path_29" data-name="Path 29" d="M10.8,241.522V94.646A15.2,15.2,0,0,1,26,79.451h-10.8A15.194,15.194,0,0,0,0,94.646V241.523a15.194,15.194,0,0,0,15.194,15.2H26A15.2,15.2,0,0,1,10.8,241.522Z" transform="translate(0 0)" fill="#202121" opacity="0.15"/>
  </g>
</svg>
